<?xml version="1.0" encoding="utf-8"?>
<!-- Generator: Adobe Illustrator 19.0.0, SVG Export Plug-In . SVG Version: 6.00 Build 0)  -->
<svg version="1.1" id="Layer_1" xmlns="http://www.w3.org/2000/svg" xmlns:xlink="http://www.w3.org/1999/xlink" x="0px" y="0px"
	 viewBox="54 -720 720 720" style="enable-background:new 54 -720 720 720;" xml:space="preserve">
<style type="text/css">
	.st0{fill:#FFFFFF;}
</style>
<rect x="52.5" y="-731.3" width="723" height="742.5"/>
<path class="st0" d="M619.4-534.9l-67.7,67.2v75.1l39,39c4.4,4.4,4.4,11.4,0,15.8c-2,2-4.9,3.5-7.9,3.5s-5.9-1-7.9-3.5l-42-42
	c-2-2-3.5-4.9-3.5-7.9v-85c0-3,1-5.9,3.5-7.9l70.1-70.1c4.4-4.4,11.4-4.4,15.8,0C623.3-546.2,623.3-539.3,619.4-534.9z M473.6-528.9
	c0-21.7,17.8-39.5,39.5-39.5c21.7,0,39.5,17.8,39.5,39.5c0,21.7-17.8,39.5-39.5,39.5C490.9-489.4,473.6-507.2,473.6-528.9z
	 M495.9-528.9c0,9.4,7.4,16.8,16.8,16.8s16.8-7.4,16.8-16.8c0-9.4-7.4-16.8-16.8-16.8C503.3-545.7,495.9-538.3,495.9-528.9z
	 M448.5-365.9l56.3,56.3c2,2,4.9,3.5,7.9,3.5s5.9-1,7.9-3.5c4.4-4.4,4.4-11.4,0-15.8l-48.4-48.4l34.1-34.1c3.5-3.5,4.4-8.9,2-12.8
	L480.1-477c-2-4-5.9-6.4-9.9-6.4H400c-6.4,0-11.4,4.9-11.4,11.4c0,6.4,4.9,11.4,11.4,11.4h63.2l21.2,43L448-381.2
	C444-377.8,444-370.4,448.5-365.9z M512.2-264.2c1.5,0,3.5-0.5,4.9-1l84.5-42c5.4-3,7.9-9.4,4.9-15.3c-3-5.4-9.4-7.9-15.3-4.9
	l-84,41.5c-5.4,3-7.9,9.4-4.9,15.3C504.8-266.6,508.7-264.2,512.2-264.2z M625.3-315.1c-6.4,0-11.4,4.9-11.4,11.4
	c0,71.1-58.3,129.4-129.4,129.4H343.7c-71.1,0-129.4-58.3-129.4-129.4c0-6.4-4.9-11.4-11.4-11.4s-11.4,4.9-11.4,11.4
	c0,84,68.2,152.1,152.1,152.1h140.8c84,0,152.1-68.2,152.1-152.1C636.6-310.1,631.7-315.1,625.3-315.1z"/>
</svg>
