<?xml version="1.0" encoding="utf-8"?>
<!-- Generator: Adobe Illustrator 19.0.0, SVG Export Plug-In . SVG Version: 6.00 Build 0)  -->
<svg version="1.1" id="Layer_1" xmlns="http://www.w3.org/2000/svg" xmlns:xlink="http://www.w3.org/1999/xlink" x="0px" y="0px"
	 viewBox="54 37 720 720" style="enable-background:new 54 37 720 720;" xml:space="preserve">
<style type="text/css">
	.st0{fill:#FFFFFF;}
</style>
<rect x="52.5" y="25.8" class="st0" width="723" height="742.5"/>
<g>
	<path id="vert" d="M625.3,441.9c-6.4,0-11.4,4.9-11.4,11.4c0,71.1-58.3,129.4-129.4,129.4H343.7c-71.1,0-129.4-58.3-129.4-129.4
		c0-6.4-4.9-11.4-11.4-11.4s-11.4,4.9-11.4,11.4c0,84,68.2,152.1,152.1,152.1h140.8c84,0,152.1-68.2,152.1-152.1
		C636.6,446.9,631.7,441.9,625.3,441.9z"/>
	<g id="human">
		<path d="M591.2,429.6l-84,41.5c-5.4,3-7.9,9.4-4.9,15.3c2.5,4,6.4,6.4,9.9,6.4c1.5,0,3.5-0.5,4.9-1l84.5-42
			c5.4-3,7.9-9.4,4.9-15.3C603.5,429.1,597.1,426.6,591.2,429.6z"/>
		<path d="M529.4,284.3v85c0,3,1.5,5.9,3.5,7.9l42,42c2,2.5,4.9,3.5,7.9,3.5s5.9-1.5,7.9-3.5c4.4-4.4,4.4-11.4,0-15.8l-39-39v-75.1
			l67.7-67.2c3.9-4.4,3.9-11.3-0.6-15.8c-4.4-4.4-11.4-4.4-15.8,0l-70.1,70.1C530.4,278.4,529.4,281.3,529.4,284.3z"/>
		<path d="M400,296.4h63.2l21.2,43L448,375.8c-4,3.4-4,10.8,0.5,15.3l56.3,56.3c2,2,4.9,3.5,7.9,3.5c3,0,5.9-1,7.9-3.5
			c4.4-4.4,4.4-11.4,0-15.8l-48.4-48.4l34.1-34.1c3.5-3.5,4.4-8.9,2-12.8L480.1,280c-2-4-5.9-6.4-9.9-6.4H400
			c-6.4,0-11.4,4.9-11.4,11.4C388.6,291.4,393.5,296.4,400,296.4z"/>
		<path d="M513.1,267.6c21.7,0,39.5-17.8,39.5-39.5c0-21.7-17.8-39.5-39.5-39.5c-21.7,0-39.5,17.8-39.5,39.5
			C473.6,249.8,490.9,267.6,513.1,267.6z M512.7,211.3c9.4,0,16.8,7.4,16.8,16.8c0,9.4-7.4,16.8-16.8,16.8
			c-9.4,0-16.8-7.4-16.8-16.8C495.9,218.7,503.3,211.3,512.7,211.3z"/>
	</g>
</g>
</svg>
